<?xml version="1.0" standalone="no"?>
<!DOCTYPE svg PUBLIC "-//W3C//DTD SVG 20010904//EN"
 "http://www.w3.org/TR/2001/REC-SVG-20010904/DTD/svg10.dtd">
<svg version="1.0" xmlns="http://www.w3.org/2000/svg"
 width="643.000000pt" height="1280.000000pt" viewBox="0 0 643.000000 1280.000000"
 preserveAspectRatio="xMidYMid meet">
<metadata>
Created by potrace 1.15, written by Peter Selinger 2001-2017
</metadata>
<g transform="translate(0.000000,1280.000000) scale(0.100000,-0.100000)"
fill="#03a9f4" stroke="none">
<path d="M0 7050 l0 -5750 406 -650 c271 -434 412 -650 423 -650 10 0 147 211
401 620 212 341 388 619 392 620 4 0 181 -279 394 -620 245 -391 393 -620 403
-620 10 0 158 227 401 616 212 339 389 616 395 616 5 1 183 -277 395 -616 243
-389 391 -616 401 -616 10 0 158 229 403 620 213 341 390 620 394 620 4 -1
180 -279 392 -620 254 -409 391 -620 401 -620 11 0 152 216 423 650 l406 650
0 5750 0 5750 -24 0 c-20 0 -75 -82 -411 -620 -213 -341 -390 -620 -394 -620
-3 1 -179 279 -391 618 -223 357 -392 618 -402 620 -12 2 -118 -159 -404 -617
-213 -342 -390 -621 -393 -621 -4 0 -179 278 -391 618 -297 475 -390 617 -405
617 -15 0 -108 -142 -405 -617 -212 -340 -387 -618 -391 -618 -3 0 -180 279
-393 621 -286 458 -392 619 -404 617 -10 -2 -179 -263 -402 -620 -212 -339
-388 -617 -391 -618 -4 0 -181 279 -394 620 -336 538 -391 620 -411 620 l-24
0 0 -5750z"/>
</g>
</svg>
