<svg width="159" height="72" viewBox="0 0 159 72" fill="none" xmlns="http://www.w3.org/2000/svg">
<g filter="url(#filter0_d)">
<path fill-rule="evenodd" clip-rule="evenodd" d="M54.2942 24.9904L61.7942 12L69.2942 24.9904L75.2942 14.5981L81.2942 24.9904L87.7942 13.732L94.2942 24.9904L101.294 12.866L108.294 24.9904L114.794 13.732L121.294 24.9904L128.294 12.866L135.294 24.9904L141.794 13.732L148.294 24.9904L155 13.3756V70.2484L148.294 58.9115L140.794 71.591L133.294 58.9115L125.794 71.591L118.294 58.9115L110.794 71.591L103.294 58.9115L95.7942 71.591L88.2942 58.9115L82.2942 69.0551L76.2942 58.9115L69.7942 69.9004L63.2942 58.9115L56.2942 70.7457L49.2942 58.9115L42.7942 69.9004L36.2942 58.9115L29.2942 70.7457L22.2942 58.9115L15.7942 69.9004L9.29415 58.9115L4 67.8618V15.8205L9.29423 24.9904L16.7942 12L24.2942 24.9904L31.7942 12L39.2942 24.9904L46.7942 12L54.2942 24.9904Z" fill="#38BF2A"/>
</g>
<path d="M25.1885 41.7373C25.0889 43.1143 24.5791 44.1982 23.6592 44.9893C22.7451 45.7803 21.5381 46.1758 20.0381 46.1758C18.3975 46.1758 17.1055 45.625 16.1621 44.5234C15.2246 43.416 14.7559 41.8984 14.7559 39.9707V39.1885C14.7559 37.958 14.9727 36.874 15.4062 35.9365C15.8398 34.999 16.458 34.2812 17.2607 33.7832C18.0693 33.2793 19.0068 33.0273 20.0732 33.0273C21.5498 33.0273 22.7393 33.4229 23.6416 34.2139C24.5439 35.0049 25.0654 36.1152 25.2061 37.5449H22.5693C22.5049 36.7188 22.2734 36.1211 21.875 35.752C21.4824 35.377 20.8818 35.1895 20.0732 35.1895C19.1943 35.1895 18.5352 35.5059 18.0957 36.1387C17.6621 36.7656 17.4395 37.7412 17.4277 39.0654V40.0322C17.4277 41.415 17.6357 42.4258 18.0518 43.0645C18.4736 43.7031 19.1357 44.0225 20.0381 44.0225C20.8525 44.0225 21.459 43.8379 21.8574 43.4688C22.2617 43.0938 22.4932 42.5166 22.5518 41.7373H25.1885ZM32.0967 38.8721C31.751 38.8252 31.4463 38.8018 31.1826 38.8018C30.2217 38.8018 29.5918 39.127 29.293 39.7773V46H26.7529V36.4902H29.1523L29.2227 37.624C29.7324 36.751 30.4385 36.3145 31.3408 36.3145C31.6221 36.3145 31.8857 36.3525 32.1318 36.4287L32.0967 38.8721ZM37.5283 46.1758C36.1338 46.1758 34.9971 45.748 34.1182 44.8926C33.2451 44.0371 32.8086 42.8975 32.8086 41.4736V41.2275C32.8086 40.2725 32.9932 39.4199 33.3623 38.6699C33.7314 37.9141 34.2529 37.334 34.9268 36.9297C35.6064 36.5195 36.3799 36.3145 37.2471 36.3145C38.5479 36.3145 39.5703 36.7246 40.3145 37.5449C41.0645 38.3652 41.4395 39.5283 41.4395 41.0342V42.0713H35.3838C35.4658 42.6924 35.7119 43.1904 36.1221 43.5654C36.5381 43.9404 37.0625 44.1279 37.6953 44.1279C38.6738 44.1279 39.4385 43.7734 39.9893 43.0645L41.2373 44.4619C40.8564 45.001 40.3408 45.4229 39.6904 45.7275C39.04 46.0264 38.3193 46.1758 37.5283 46.1758ZM37.2383 38.3711C36.7344 38.3711 36.3242 38.541 36.0078 38.8809C35.6973 39.2207 35.498 39.707 35.4102 40.3398H38.9434V40.1377C38.9316 39.5752 38.7793 39.1416 38.4863 38.8369C38.1934 38.5264 37.7773 38.3711 37.2383 38.3711ZM48.4004 46C48.2832 45.7715 48.1982 45.4873 48.1455 45.1475C47.5303 45.833 46.7305 46.1758 45.7461 46.1758C44.8145 46.1758 44.041 45.9062 43.4258 45.3672C42.8164 44.8281 42.5117 44.1484 42.5117 43.3281C42.5117 42.3203 42.8838 41.5469 43.6279 41.0078C44.3779 40.4688 45.459 40.1963 46.8711 40.1904H48.04V39.6455C48.04 39.2061 47.9258 38.8545 47.6973 38.5908C47.4746 38.3271 47.1201 38.1953 46.6338 38.1953C46.2061 38.1953 45.8691 38.2979 45.623 38.5029C45.3828 38.708 45.2627 38.9893 45.2627 39.3467H42.7227C42.7227 38.7959 42.8926 38.2861 43.2324 37.8174C43.5723 37.3486 44.0527 36.9824 44.6738 36.7188C45.2949 36.4492 45.9922 36.3145 46.7656 36.3145C47.9375 36.3145 48.8662 36.6104 49.5518 37.2021C50.2432 37.7881 50.5889 38.6143 50.5889 39.6807V43.8027C50.5947 44.7051 50.7207 45.3877 50.9668 45.8506V46H48.4004ZM46.2998 44.2334C46.6748 44.2334 47.0205 44.1514 47.3369 43.9873C47.6533 43.8174 47.8877 43.5918 48.04 43.3105V41.6758H47.0908C45.8193 41.6758 45.1426 42.1152 45.0605 42.9941L45.0518 43.1436C45.0518 43.46 45.1631 43.7207 45.3857 43.9258C45.6084 44.1309 45.9131 44.2334 46.2998 44.2334ZM55.5811 34.1523V36.4902H57.207V38.3535H55.5811V43.0996C55.5811 43.4512 55.6484 43.7031 55.7832 43.8555C55.918 44.0078 56.1758 44.084 56.5566 44.084C56.8379 44.084 57.0869 44.0635 57.3037 44.0225V45.9473C56.8057 46.0996 56.293 46.1758 55.7656 46.1758C53.9844 46.1758 53.0762 45.2764 53.041 43.4775V38.3535H51.6523V36.4902H53.041V34.1523H55.5811ZM62.999 46.1758C61.6045 46.1758 60.4678 45.748 59.5889 44.8926C58.7158 44.0371 58.2793 42.8975 58.2793 41.4736V41.2275C58.2793 40.2725 58.4639 39.4199 58.833 38.6699C59.2021 37.9141 59.7236 37.334 60.3975 36.9297C61.0771 36.5195 61.8506 36.3145 62.7178 36.3145C64.0186 36.3145 65.041 36.7246 65.7852 37.5449C66.5352 38.3652 66.9102 39.5283 66.9102 41.0342V42.0713H60.8545C60.9365 42.6924 61.1826 43.1904 61.5928 43.5654C62.0088 43.9404 62.5332 44.1279 63.166 44.1279C64.1445 44.1279 64.9092 43.7734 65.46 43.0645L66.708 44.4619C66.3271 45.001 65.8115 45.4229 65.1611 45.7275C64.5107 46.0264 63.79 46.1758 62.999 46.1758ZM62.709 38.3711C62.2051 38.3711 61.7949 38.541 61.4785 38.8809C61.168 39.2207 60.9688 39.707 60.8809 40.3398H64.4141V40.1377C64.4023 39.5752 64.25 39.1416 63.957 38.8369C63.6641 38.5264 63.248 38.3711 62.709 38.3711ZM84.7168 43.3633H80.0938L79.2148 46H76.4111L81.1748 33.2031H83.6182L88.4082 46H85.6045L84.7168 43.3633ZM80.8057 41.2275H84.0049L82.3965 36.4375L80.8057 41.2275ZM93.3916 44.1279C93.8604 44.1279 94.2412 43.999 94.5342 43.7412C94.8271 43.4834 94.9795 43.1406 94.9912 42.7129H97.373C97.3672 43.3574 97.1914 43.9492 96.8457 44.4883C96.5 45.0215 96.0254 45.4375 95.4219 45.7363C94.8242 46.0293 94.1621 46.1758 93.4355 46.1758C92.0762 46.1758 91.0039 45.7451 90.2188 44.8838C89.4336 44.0166 89.041 42.8213 89.041 41.2979V41.1309C89.041 39.666 89.4307 38.4971 90.21 37.624C90.9893 36.751 92.0586 36.3145 93.418 36.3145C94.6074 36.3145 95.5596 36.6543 96.2744 37.334C96.9951 38.0078 97.3613 38.9072 97.373 40.0322H94.9912C94.9795 39.54 94.8271 39.1416 94.5342 38.8369C94.2412 38.5264 93.8545 38.3711 93.374 38.3711C92.7822 38.3711 92.334 38.5879 92.0293 39.0215C91.7305 39.4492 91.5811 40.1465 91.5811 41.1133V41.377C91.5811 42.3555 91.7305 43.0586 92.0293 43.4863C92.3281 43.9141 92.7822 44.1279 93.3916 44.1279ZM102.778 44.1279C103.247 44.1279 103.628 43.999 103.921 43.7412C104.214 43.4834 104.366 43.1406 104.378 42.7129H106.76C106.754 43.3574 106.578 43.9492 106.232 44.4883C105.887 45.0215 105.412 45.4375 104.809 45.7363C104.211 46.0293 103.549 46.1758 102.822 46.1758C101.463 46.1758 100.391 45.7451 99.6055 44.8838C98.8203 44.0166 98.4277 42.8213 98.4277 41.2979V41.1309C98.4277 39.666 98.8174 38.4971 99.5967 37.624C100.376 36.751 101.445 36.3145 102.805 36.3145C103.994 36.3145 104.946 36.6543 105.661 37.334C106.382 38.0078 106.748 38.9072 106.76 40.0322H104.378C104.366 39.54 104.214 39.1416 103.921 38.8369C103.628 38.5264 103.241 38.3711 102.761 38.3711C102.169 38.3711 101.721 38.5879 101.416 39.0215C101.117 39.4492 100.968 40.1465 100.968 41.1133V41.377C100.968 42.3555 101.117 43.0586 101.416 43.4863C101.715 43.9141 102.169 44.1279 102.778 44.1279ZM107.814 41.1572C107.814 40.2139 107.996 39.373 108.359 38.6348C108.723 37.8965 109.244 37.3252 109.924 36.9209C110.609 36.5166 111.403 36.3145 112.306 36.3145C113.589 36.3145 114.635 36.707 115.443 37.4922C116.258 38.2773 116.712 39.3438 116.806 40.6914L116.823 41.3418C116.823 42.8008 116.416 43.9727 115.602 44.8574C114.787 45.7363 113.694 46.1758 112.323 46.1758C110.952 46.1758 109.856 45.7363 109.036 44.8574C108.222 43.9785 107.814 42.7832 107.814 41.2715V41.1572ZM110.354 41.3418C110.354 42.2441 110.524 42.9355 110.864 43.416C111.204 43.8906 111.69 44.1279 112.323 44.1279C112.938 44.1279 113.419 43.8936 113.765 43.4248C114.11 42.9502 114.283 42.1943 114.283 41.1572C114.283 40.2725 114.11 39.5869 113.765 39.1006C113.419 38.6143 112.933 38.3711 112.306 38.3711C111.685 38.3711 111.204 38.6143 110.864 39.1006C110.524 39.5811 110.354 40.3281 110.354 41.3418ZM124.083 45.0332C123.456 45.7949 122.589 46.1758 121.481 46.1758C120.462 46.1758 119.683 45.8828 119.144 45.2969C118.61 44.7109 118.338 43.8525 118.326 42.7217V36.4902H120.866V42.6338C120.866 43.624 121.317 44.1191 122.22 44.1191C123.081 44.1191 123.673 43.8203 123.995 43.2227V36.4902H126.544V46H124.153L124.083 45.0332ZM130.798 36.4902L130.877 37.5889C131.557 36.7393 132.468 36.3145 133.61 36.3145C134.618 36.3145 135.368 36.6104 135.86 37.2021C136.353 37.7939 136.604 38.6787 136.616 39.8564V46H134.076V39.918C134.076 39.3789 133.959 38.9893 133.725 38.749C133.49 38.5029 133.101 38.3799 132.556 38.3799C131.841 38.3799 131.305 38.6846 130.947 39.2939V46H128.407V36.4902H130.798ZM141.591 34.1523V36.4902H143.217V38.3535H141.591V43.0996C141.591 43.4512 141.658 43.7031 141.793 43.8555C141.928 44.0078 142.186 44.084 142.566 44.084C142.848 44.084 143.097 44.0635 143.313 44.0225V45.9473C142.815 46.0996 142.303 46.1758 141.775 46.1758C139.994 46.1758 139.086 45.2764 139.051 43.4775V38.3535H137.662V36.4902H139.051V34.1523H141.591Z" fill="black"/>
<defs>
<filter id="filter0_d" x="0" y="0" width="159" height="71.591" filterUnits="userSpaceOnUse" color-interpolation-filters="sRGB">
<feFlood flood-opacity="0" result="BackgroundImageFix"/>
<feColorMatrix in="SourceAlpha" type="matrix" values="0 0 0 0 0 0 0 0 0 0 0 0 0 0 0 0 0 0 127 0"/>
<feOffset dy="-8"/>
<feGaussianBlur stdDeviation="2"/>
<feColorMatrix type="matrix" values="0 0 0 0 0 0 0 0 0 0 0 0 0 0 0 0 0 0 0.25 0"/>
<feBlend mode="normal" in2="BackgroundImageFix" result="effect1_dropShadow"/>
<feBlend mode="normal" in="SourceGraphic" in2="effect1_dropShadow" result="shape"/>
</filter>
</defs>
</svg>
