<svg width="20" height="20" viewBox="0 0 20 20" fill="none" xmlns="http://www.w3.org/2000/svg">
<path d="M18.3333 15.8333H13.3333V12.5H11.1C10.15 14.5166 8.1 15.8333 5.83333 15.8333C2.61667 15.8333 0 13.2166 0 9.99996C0 6.78329 2.61667 4.16663 5.83333 4.16663C8.1 4.16663 10.1417 5.48329 11.1 7.49996H20V12.5H18.3333V15.8333ZM15 14.1666H16.6667V10.8333H18.3333V9.16663H9.95L9.75833 8.60829C9.175 6.94996 7.59167 5.83329 5.83333 5.83329C3.53333 5.83329 1.66667 7.69996 1.66667 9.99996C1.66667 12.3 3.53333 14.1666 5.83333 14.1666C7.59167 14.1666 9.175 13.05 9.75833 11.3916L9.95 10.8333H15V14.1666ZM5.83333 12.5C4.45833 12.5 3.33333 11.375 3.33333 9.99996C3.33333 8.62496 4.45833 7.49996 5.83333 7.49996C7.20833 7.49996 8.33333 8.62496 8.33333 9.99996C8.33333 11.375 7.20833 12.5 5.83333 12.5ZM5.83333 9.16663C5.375 9.16663 5 9.54163 5 9.99996C5 10.4583 5.375 10.8333 5.83333 10.8333C6.29167 10.8333 6.66667 10.4583 6.66667 9.99996C6.66667 9.54163 6.29167 9.16663 5.83333 9.16663Z" fill="black" fill-opacity="0.43"/>
</svg>
