<svg width="287" height="361" viewBox="0 0 287 361" fill="none" xmlns="http://www.w3.org/2000/svg">
<g filter="url(#filter0_d)">
<path d="M257.427 33.6627C256.262 34.6989 254.212 36.8056 252.781 38.4725L250.149 41.4661L250.183 38.8905C250.173 35.1305 248.85 34.3785 247.799 37.566C247.324 39.1291 246.206 42.0874 245.465 44.2812C244.631 46.4636 244.142 48.9095 244.323 49.7424C244.835 51.7215 235.802 66.9008 227.216 78.4497C223.61 83.2398 219.728 88.7332 218.66 90.5183C217.251 92.7775 214.2 95.3509 208.47 98.9959C199.668 104.622 196.109 105.954 191.277 105.361C188.675 105.041 187.582 105.497 183.725 108.487C181.32 110.403 178.96 111.956 178.496 111.899C177.288 111.75 182.071 106.589 184.896 105.093C187.026 103.881 187.624 102.848 188.331 99.3975C188.709 97.0854 189.787 93.6801 190.577 91.8607C191.366 90.0414 191.792 88.1038 191.585 87.4887C191.378 86.8736 191.653 86.1703 192.246 85.9483C193.914 85.4162 193.677 84.2815 192.043 84.5232C191.264 84.7223 190.641 84.4246 190.712 83.8438C190.828 82.8999 186.022 78.2561 184.469 77.8443C180.248 76.8839 177.257 76.664 172.969 77.0219C164.467 77.8943 160.544 80.6555 158.09 87.5771C157.469 89.5645 156.489 92.1712 155.966 93.3599C155.278 95.118 155.543 96.035 157.391 97.8833C159.212 99.9496 159.393 100.782 158.779 104.245C158.055 107.841 157.722 108.242 155.634 108.354C153.731 108.489 153.023 108.108 151.918 106.351C150.354 103.726 146.178 102.403 139.593 102.258C133.482 102.097 127.072 99.7621 120.81 95.4554C118.041 93.4204 113.3 90.5534 110.385 88.9426C106.493 86.8432 104.012 84.7697 101.236 81.2597C99.1148 78.567 94.3354 73.7054 90.4929 70.4328C86.6503 67.1603 80.6109 61.0385 76.9771 56.8335C70.8856 49.5997 70.4923 48.9618 70.8846 45.767C71.1164 43.8792 70.6635 40.6544 69.9839 38.5072C69.2025 36.4213 68.3727 33.961 68.192 33.128C67.4069 30.3046 65.4833 33.6799 65.688 37.3901L65.8443 40.726L62.6165 37.8238C60.9186 36.2886 58.3896 33.8407 57.0455 32.4964C53.6013 29.0517 52.9138 30.8099 56.0652 35.1031C58.8144 38.8309 58.5788 39.9813 55.603 37.3311C52.2912 34.3449 48.0056 31.6076 47.3946 31.9748C46.9872 32.2196 48.5298 34.2515 50.7979 36.52C55.4932 41.2976 55.4308 41.8059 50.6196 37.9722C45.2955 33.707 43.9716 34.5026 48.5829 39.1961C53.1102 43.8057 53.007 45.4145 48.4478 41.8329C45.3524 39.3891 44.3659 38.9732 44.2233 40.1349C44.0895 41.224 55.1489 50.247 59.656 52.7167C62.7477 54.423 64.7549 56.512 68.591 62.1422C71.4063 66.0994 76.7723 73.0967 80.5473 77.6875C84.4242 82.2172 88.3584 87.0487 89.3218 88.42C90.2942 89.7186 93.447 92.4642 96.2153 94.4993C102.199 98.7717 116.937 111.637 117.175 112.771C117.214 113.219 119.536 115.051 122.331 116.869C126.97 119.797 127.447 120.519 129.2 125.451C133.724 138.536 136.717 157.182 135.775 165.615L135.11 171.799L137.593 172.324C139.433 172.698 140.291 173.393 140.511 174.673C141.141 177.993 136.517 187.228 130.169 195.145C122.013 205.494 110.921 222.853 107.599 230.7C106.673 232.871 103.638 236.846 100.737 239.733C97.8357 242.62 95.0491 246.11 94.6009 247.456C94.051 248.862 91.7825 251.974 89.5102 254.348C84.7442 259.364 80.4949 265.55 74.1259 276.707C70.6289 282.911 68.8391 285.197 65.7751 287.106C63.7206 288.475 60.1691 291.282 58.0343 293.305C53.9863 297.083 50.5329 299.091 43.3129 301.816C39.1607 303.369 33.0403 308.662 32.6799 310.828C32.4125 313.007 34.0517 315.788 36.3607 316.956C40.8945 319.207 50.7162 316.802 56.0219 311.999C61.1061 307.464 64.8026 305.781 68.7052 306.26C74.8379 307.013 84.1278 300.489 99.5639 284.622C104.108 279.873 110.314 273.117 113.406 269.443C122.257 258.811 133.853 247.337 142.705 240.538C147.284 237.046 152.934 232.507 155.171 230.423C161.309 224.986 162.517 225.134 169.361 232.387C175.532 238.967 192.302 260.631 197.685 269.031C199.501 271.907 202.279 277.702 203.926 281.958C206.535 289.133 211.382 307.269 211.133 309.302C211.07 309.81 212.37 311.518 214.059 313.125C219.285 318.189 220.949 322.3 220.417 328.942C219.959 335.74 221.367 340.408 225.041 343.513C230.162 347.901 236.412 346.162 238.617 339.726C239.953 335.762 239.716 333.08 237.573 324.415C236.577 320.239 236.565 318.026 237.52 314.09C238.147 311.292 238.576 306.26 238.53 302.79C238.288 297.085 237.891 295.71 233.345 287.413C230.663 282.366 226.514 275.445 224.295 272.003C220.654 266.323 220.305 265.322 220.76 261.619C221.518 255.448 219.125 248.815 212.894 239.648C206.879 231.023 205.903 228.987 206.25 226.156C206.661 222.816 203.357 210.544 200.023 203.133C198.247 199.156 196.729 194.621 196.536 193.123C196.435 191.637 195.358 188.114 194.184 185.39C192.051 180.485 192.06 180.413 194.043 179.624C197.509 178.281 198.382 176.546 197.097 173.956C195.67 170.98 196.638 162.328 198.805 159.277C199.828 157.855 200.184 156.498 199.808 155.715C198.43 153.114 199.364 137.825 201.344 130.919C202.995 125.151 203.74 123.695 206.707 121.038C208.611 119.355 211.286 117.546 212.658 117.125C213.946 116.62 215.093 115.729 215.173 115.075C215.245 114.495 219.493 109.857 224.648 104.741C233.648 95.97 234.33 95.0219 240.372 83.4554C243.932 76.7433 247.651 68.7242 248.694 65.6093C250.212 60.9313 251.133 59.5704 253.808 57.7614C255.65 56.5872 258.803 53.9525 260.836 51.991C262.869 50.0296 265.588 47.8575 266.792 47.2683C268.913 46.1284 269.897 44.2592 268.41 44.0767C267.945 44.0196 266.343 44.781 264.705 45.8328C259.086 49.344 258.667 47.3763 264.105 43.0322C266.094 41.4338 267.803 39.8011 267.839 39.5107C268.008 38.1311 265.857 38.7514 262.775 40.8052C258.241 43.9337 258.18 42.8943 262.551 38.7878C264.668 36.9103 266.117 35.0982 265.967 34.785C265.255 33.6657 261.873 35.0931 259.322 37.4331C255.801 40.7597 254.952 39.9921 258.212 36.4861C259.745 34.758 261.074 33.1523 261.118 32.7893C261.279 31.4823 259.424 31.9917 257.427 33.6627Z" fill="white" fill-opacity="0.8"/>
</g>
<defs>
<filter id="filter0_d" x="0" y="0" width="286.509" height="360.867" filterUnits="userSpaceOnUse" color-interpolation-filters="sRGB">
<feFlood flood-opacity="0" result="BackgroundImageFix"/>
<feColorMatrix in="SourceAlpha" type="matrix" values="0 0 0 0 0 0 0 0 0 0 0 0 0 0 0 0 0 0 127 0"/>
<feOffset dy="4"/>
<feGaussianBlur stdDeviation="5"/>
<feColorMatrix type="matrix" values="0 0 0 0 0 0 0 0 0 0 0 0 0 0 0 0 0 0 0.25 0"/>
<feBlend mode="normal" in2="BackgroundImageFix" result="effect1_dropShadow"/>
<feBlend mode="normal" in="SourceGraphic" in2="effect1_dropShadow" result="shape"/>
</filter>
</defs>
</svg>
