<svg width="20" height="20" viewBox="0 0 20 20" fill="none" xmlns="http://www.w3.org/2000/svg">
<rect width="20" height="20" fill="white"/>
<path d="M10 5.00004C10.9167 5.00004 11.6667 5.75004 11.6667 6.66671C11.6667 7.58337 10.9167 8.33337 10 8.33337C9.08334 8.33337 8.33334 7.58337 8.33334 6.66671C8.33334 5.75004 9.08334 5.00004 10 5.00004ZM10 13.3334C12.25 13.3334 14.8333 14.4084 15 15H5.00001C5.19168 14.4 7.75834 13.3334 10 13.3334ZM10 3.33337C8.15834 3.33337 6.66668 4.82504 6.66668 6.66671C6.66668 8.50837 8.15834 10 10 10C11.8417 10 13.3333 8.50837 13.3333 6.66671C13.3333 4.82504 11.8417 3.33337 10 3.33337ZM10 11.6667C7.77501 11.6667 3.33334 12.7834 3.33334 15V16.6667H16.6667V15C16.6667 12.7834 12.225 11.6667 10 11.6667Z" fill="black" fill-opacity="0.43"/>
</svg>
